<mxfile host="app.diagrams.net" modified="2024-02-12T09:03:06.166Z" agent="Mozilla/5.0 (Windows NT 10.0; Win64; x64) AppleWebKit/537.36 (KHTML, like Gecko) Chrome/121.0.0.0 Safari/537.36 Edg/121.0.0.0" etag="ecqMBOU6PVL_OuYouZ3J" version="23.1.2" type="github">
  <diagram name="Page-1" id="nhN2WSrXVNMopDosOrQ_">
    <mxGraphModel dx="614" dy="983" grid="1" gridSize="10" guides="1" tooltips="1" connect="1" arrows="1" fold="1" page="1" pageScale="1" pageWidth="1169" pageHeight="1654" background="none" math="0" shadow="0">
      <root>
        <mxCell id="0" />
        <mxCell id="1" parent="0" />
        <mxCell id="4X-VSMix1a7pKHLTpS-A-9" style="edgeStyle=orthogonalEdgeStyle;rounded=0;orthogonalLoop=1;jettySize=auto;html=1;strokeWidth=3;" parent="1" source="4X-VSMix1a7pKHLTpS-A-1" target="4X-VSMix1a7pKHLTpS-A-2" edge="1">
          <mxGeometry relative="1" as="geometry" />
        </mxCell>
        <mxCell id="4X-VSMix1a7pKHLTpS-A-1" value="&lt;h1&gt;&lt;font style=&quot;font-size: 20px;&quot; face=&quot;Comic Sans MS&quot;&gt;High-level programming language&lt;/font&gt;&lt;/h1&gt;" style="rounded=1;whiteSpace=wrap;html=1;fillColor=#0571FF;strokeColor=#6c8ebf;gradientColor=none;sketch=1;curveFitting=1;jiggle=2;glass=0;shadow=0;fillStyle=hachure;" parent="1" vertex="1">
          <mxGeometry x="88" y="335" width="140" height="100" as="geometry" />
        </mxCell>
        <mxCell id="4X-VSMix1a7pKHLTpS-A-6" style="edgeStyle=orthogonalEdgeStyle;rounded=0;orthogonalLoop=1;jettySize=auto;html=1;strokeWidth=3;" parent="1" source="4X-VSMix1a7pKHLTpS-A-2" target="4X-VSMix1a7pKHLTpS-A-4" edge="1">
          <mxGeometry relative="1" as="geometry" />
        </mxCell>
        <mxCell id="4X-VSMix1a7pKHLTpS-A-15" style="edgeStyle=orthogonalEdgeStyle;rounded=0;orthogonalLoop=1;jettySize=auto;html=1;strokeWidth=3;" parent="1" source="4X-VSMix1a7pKHLTpS-A-2" target="4X-VSMix1a7pKHLTpS-A-3" edge="1">
          <mxGeometry relative="1" as="geometry" />
        </mxCell>
        <mxCell id="4X-VSMix1a7pKHLTpS-A-2" value="&lt;h1&gt;&lt;font style=&quot;font-size: 20px;&quot;&gt;Low-level programming language&amp;nbsp;&lt;/font&gt;&lt;/h1&gt;" style="rounded=1;whiteSpace=wrap;html=1;fillColor=#0571FF;strokeColor=#6c8ebf;gradientColor=none;sketch=1;curveFitting=1;jiggle=2;glass=0;shadow=0;fillStyle=hachure;" parent="1" vertex="1">
          <mxGeometry x="280" y="335" width="140" height="100" as="geometry" />
        </mxCell>
        <mxCell id="4X-VSMix1a7pKHLTpS-A-3" value="&lt;b style=&quot;border-color: var(--border-color); font-size: 20px;&quot;&gt;Assembly language&lt;br style=&quot;border-color: var(--border-color);&quot;&gt;&lt;/b&gt;" style="rounded=1;whiteSpace=wrap;html=1;fillColor=#0571FF;strokeColor=#6c8ebf;gradientColor=none;sketch=1;curveFitting=1;jiggle=2;glass=0;shadow=0;fillStyle=hachure;" parent="1" vertex="1">
          <mxGeometry x="500" y="435" width="120" height="83" as="geometry" />
        </mxCell>
        <mxCell id="4X-VSMix1a7pKHLTpS-A-4" value="&lt;font style=&quot;font-size: 20px;&quot;&gt;&lt;b&gt;Machine&lt;br&gt;Code&lt;/b&gt;&lt;/font&gt;" style="rounded=1;whiteSpace=wrap;html=1;fillColor=#0571FF;strokeColor=#6c8ebf;gradientColor=none;sketch=1;curveFitting=1;jiggle=2;glass=0;shadow=0;fillStyle=hachure;" parent="1" vertex="1">
          <mxGeometry x="500" y="254" width="120" height="81" as="geometry" />
        </mxCell>
        <mxCell id="EmII1FdQIr8QJVhsCMgZ-1" value="&lt;b&gt;Compile language&lt;/b&gt;" style="rounded=1;whiteSpace=wrap;html=1;fontSize=16;fillColor=#054FFC;strokeColor=#6c8ebf;fillStyle=hatch;gradientColor=none;sketch=1;curveFitting=1;jiggle=2;glass=0;shadow=0;" vertex="1" parent="1">
          <mxGeometry x="88" y="750" width="120" height="50" as="geometry" />
        </mxCell>
        <mxCell id="EmII1FdQIr8QJVhsCMgZ-2" value="&lt;b&gt;Interpreter language&lt;/b&gt;" style="rounded=1;whiteSpace=wrap;html=1;fontSize=16;fillColor=#054FFC;strokeColor=#6c8ebf;fillStyle=hatch;gradientColor=none;sketch=1;curveFitting=1;jiggle=2;glass=0;shadow=0;" vertex="1" parent="1">
          <mxGeometry x="88" y="840" width="120" height="50" as="geometry" />
        </mxCell>
        <mxCell id="EmII1FdQIr8QJVhsCMgZ-3" value="&lt;b&gt;&lt;font style=&quot;font-size: 20px;&quot;&gt;Low-level language&lt;/font&gt;&lt;/b&gt;" style="rounded=1;whiteSpace=wrap;html=1;fontSize=16;fillColor=#054FFC;strokeColor=#6c8ebf;fillStyle=hatch;gradientColor=none;sketch=1;curveFitting=1;jiggle=2;glass=0;shadow=0;" vertex="1" parent="1">
          <mxGeometry x="360" y="760" width="120" height="120" as="geometry" />
        </mxCell>
        <mxCell id="EmII1FdQIr8QJVhsCMgZ-4" style="edgeStyle=none;curved=1;rounded=0;orthogonalLoop=1;jettySize=auto;html=1;entryX=-0.006;entryY=0.133;entryDx=0;entryDy=0;entryPerimeter=0;fontSize=12;startSize=8;endSize=8;" edge="1" parent="1" source="EmII1FdQIr8QJVhsCMgZ-1" target="EmII1FdQIr8QJVhsCMgZ-3">
          <mxGeometry relative="1" as="geometry" />
        </mxCell>
        <mxCell id="EmII1FdQIr8QJVhsCMgZ-7" value="Compile" style="edgeLabel;html=1;align=center;verticalAlign=middle;resizable=0;points=[];fontSize=16;" vertex="1" connectable="0" parent="EmII1FdQIr8QJVhsCMgZ-4">
          <mxGeometry x="-0.0931" relative="1" as="geometry">
            <mxPoint as="offset" />
          </mxGeometry>
        </mxCell>
        <mxCell id="EmII1FdQIr8QJVhsCMgZ-5" style="edgeStyle=none;curved=1;rounded=0;orthogonalLoop=1;jettySize=auto;html=1;entryX=0.017;entryY=0.867;entryDx=0;entryDy=0;entryPerimeter=0;fontSize=12;startSize=8;endSize=8;" edge="1" parent="1" source="EmII1FdQIr8QJVhsCMgZ-2" target="EmII1FdQIr8QJVhsCMgZ-3">
          <mxGeometry relative="1" as="geometry" />
        </mxCell>
        <mxCell id="EmII1FdQIr8QJVhsCMgZ-8" value="Interprete" style="edgeLabel;html=1;align=center;verticalAlign=middle;resizable=0;points=[];fontSize=16;" vertex="1" connectable="0" parent="EmII1FdQIr8QJVhsCMgZ-5">
          <mxGeometry x="-0.145" y="3" relative="1" as="geometry">
            <mxPoint x="7" y="4" as="offset" />
          </mxGeometry>
        </mxCell>
        <mxCell id="EmII1FdQIr8QJVhsCMgZ-6" value="&lt;b&gt;High-level language&lt;/b&gt;" style="text;html=1;align=center;verticalAlign=middle;resizable=0;points=[];autosize=1;strokeColor=none;fillColor=none;fontSize=16;" vertex="1" parent="1">
          <mxGeometry x="63" y="710" width="170" height="30" as="geometry" />
        </mxCell>
        <mxCell id="EmII1FdQIr8QJVhsCMgZ-38" style="edgeStyle=none;curved=1;rounded=0;orthogonalLoop=1;jettySize=auto;html=1;fontSize=12;startSize=8;endSize=8;entryX=0;entryY=0.5;entryDx=0;entryDy=0;" edge="1" parent="1" source="EmII1FdQIr8QJVhsCMgZ-9" target="EmII1FdQIr8QJVhsCMgZ-17">
          <mxGeometry relative="1" as="geometry">
            <Array as="points">
              <mxPoint x="300" y="1270" />
            </Array>
          </mxGeometry>
        </mxCell>
        <mxCell id="EmII1FdQIr8QJVhsCMgZ-39" style="edgeStyle=none;curved=1;rounded=0;orthogonalLoop=1;jettySize=auto;html=1;fontSize=12;startSize=8;endSize=8;dashed=1;entryX=0;entryY=0.5;entryDx=0;entryDy=0;" edge="1" parent="1" source="EmII1FdQIr8QJVhsCMgZ-9" target="EmII1FdQIr8QJVhsCMgZ-19">
          <mxGeometry relative="1" as="geometry">
            <mxPoint x="370" y="1249" as="targetPoint" />
            <Array as="points">
              <mxPoint x="280" y="1350" />
            </Array>
          </mxGeometry>
        </mxCell>
        <mxCell id="EmII1FdQIr8QJVhsCMgZ-12" value="" style="shape=table;startSize=0;container=1;collapsible=0;childLayout=tableLayout;fontSize=16;fillStyle=auto;rounded=1;sketch=1;curveFitting=1;jiggle=2;strokeColor=#0099FF;fillColor=none;" vertex="1" parent="1">
          <mxGeometry x="370" y="1155" width="130" height="224" as="geometry" />
        </mxCell>
        <mxCell id="EmII1FdQIr8QJVhsCMgZ-58" value="" style="shape=tableRow;horizontal=0;startSize=0;swimlaneHead=0;swimlaneBody=0;strokeColor=inherit;top=0;left=0;bottom=0;right=0;collapsible=0;dropTarget=0;fillColor=none;points=[[0,0.5],[1,0.5]];portConstraint=eastwest;fontSize=16;" vertex="1" parent="EmII1FdQIr8QJVhsCMgZ-12">
          <mxGeometry width="130" height="32" as="geometry" />
        </mxCell>
        <mxCell id="EmII1FdQIr8QJVhsCMgZ-59" value="" style="shape=partialRectangle;html=1;whiteSpace=wrap;connectable=0;strokeColor=inherit;overflow=hidden;fillColor=#FF6680;top=0;left=0;bottom=0;right=0;pointerEvents=1;fontSize=16;fillStyle=hatch;sketch=1;curveFitting=1;jiggle=2;" vertex="1" parent="EmII1FdQIr8QJVhsCMgZ-58">
          <mxGeometry width="130" height="32" as="geometry">
            <mxRectangle width="130" height="32" as="alternateBounds" />
          </mxGeometry>
        </mxCell>
        <mxCell id="EmII1FdQIr8QJVhsCMgZ-56" value="" style="shape=tableRow;horizontal=0;startSize=0;swimlaneHead=0;swimlaneBody=0;strokeColor=inherit;top=0;left=0;bottom=0;right=0;collapsible=0;dropTarget=0;fillColor=none;points=[[0,0.5],[1,0.5]];portConstraint=eastwest;fontSize=16;" vertex="1" parent="EmII1FdQIr8QJVhsCMgZ-12">
          <mxGeometry y="32" width="130" height="32" as="geometry" />
        </mxCell>
        <mxCell id="EmII1FdQIr8QJVhsCMgZ-57" value="" style="shape=partialRectangle;html=1;whiteSpace=wrap;connectable=0;strokeColor=inherit;overflow=hidden;fillColor=#FF6680;top=0;left=0;bottom=0;right=0;pointerEvents=1;fontSize=16;fillStyle=hatch;sketch=1;curveFitting=1;jiggle=2;" vertex="1" parent="EmII1FdQIr8QJVhsCMgZ-56">
          <mxGeometry width="130" height="32" as="geometry">
            <mxRectangle width="130" height="32" as="alternateBounds" />
          </mxGeometry>
        </mxCell>
        <mxCell id="EmII1FdQIr8QJVhsCMgZ-13" value="" style="shape=tableRow;horizontal=0;startSize=0;swimlaneHead=0;swimlaneBody=0;strokeColor=inherit;top=0;left=0;bottom=0;right=0;collapsible=0;dropTarget=0;fillColor=none;points=[[0,0.5],[1,0.5]];portConstraint=eastwest;fontSize=16;" vertex="1" parent="EmII1FdQIr8QJVhsCMgZ-12">
          <mxGeometry y="64" width="130" height="32" as="geometry" />
        </mxCell>
        <mxCell id="EmII1FdQIr8QJVhsCMgZ-14" value="" style="shape=partialRectangle;html=1;whiteSpace=wrap;connectable=0;strokeColor=inherit;overflow=hidden;fillColor=#FF6680;top=0;left=0;bottom=0;right=0;pointerEvents=1;fontSize=16;fillStyle=hatch;sketch=1;curveFitting=1;jiggle=2;" vertex="1" parent="EmII1FdQIr8QJVhsCMgZ-13">
          <mxGeometry width="130" height="32" as="geometry">
            <mxRectangle width="130" height="32" as="alternateBounds" />
          </mxGeometry>
        </mxCell>
        <mxCell id="EmII1FdQIr8QJVhsCMgZ-15" value="" style="shape=tableRow;horizontal=0;startSize=0;swimlaneHead=0;swimlaneBody=0;strokeColor=inherit;top=0;left=0;bottom=0;right=0;collapsible=0;dropTarget=0;fillColor=none;points=[[0,0.5],[1,0.5]];portConstraint=eastwest;fontSize=16;" vertex="1" parent="EmII1FdQIr8QJVhsCMgZ-12">
          <mxGeometry y="96" width="130" height="32" as="geometry" />
        </mxCell>
        <mxCell id="EmII1FdQIr8QJVhsCMgZ-16" value="" style="shape=partialRectangle;html=1;whiteSpace=wrap;connectable=0;strokeColor=inherit;overflow=hidden;fillColor=#FF6680;top=0;left=0;bottom=0;right=0;pointerEvents=1;fontSize=16;fillStyle=hatch;sketch=1;curveFitting=1;jiggle=2;" vertex="1" parent="EmII1FdQIr8QJVhsCMgZ-15">
          <mxGeometry width="130" height="32" as="geometry">
            <mxRectangle width="130" height="32" as="alternateBounds" />
          </mxGeometry>
        </mxCell>
        <mxCell id="EmII1FdQIr8QJVhsCMgZ-17" value="" style="shape=tableRow;horizontal=0;startSize=0;swimlaneHead=0;swimlaneBody=0;strokeColor=inherit;top=0;left=0;bottom=0;right=0;collapsible=0;dropTarget=0;fillColor=none;points=[[0,0.5],[1,0.5]];portConstraint=eastwest;fontSize=16;" vertex="1" parent="EmII1FdQIr8QJVhsCMgZ-12">
          <mxGeometry y="128" width="130" height="32" as="geometry" />
        </mxCell>
        <mxCell id="EmII1FdQIr8QJVhsCMgZ-18" value="&lt;b&gt;Stack data 3&lt;/b&gt;" style="shape=partialRectangle;html=1;whiteSpace=wrap;connectable=0;overflow=hidden;top=0;left=0;bottom=0;right=0;pointerEvents=1;fontSize=16;fillColor=#6EBBFF;fillStyle=hachure;sketch=1;curveFitting=1;jiggle=2;" vertex="1" parent="EmII1FdQIr8QJVhsCMgZ-17">
          <mxGeometry width="130" height="32" as="geometry">
            <mxRectangle width="130" height="32" as="alternateBounds" />
          </mxGeometry>
        </mxCell>
        <mxCell id="EmII1FdQIr8QJVhsCMgZ-19" value="" style="shape=tableRow;horizontal=0;startSize=0;swimlaneHead=0;swimlaneBody=0;strokeColor=inherit;top=0;left=0;bottom=0;right=0;collapsible=0;dropTarget=0;fillColor=none;points=[[0,0.5],[1,0.5]];portConstraint=eastwest;fontSize=16;" vertex="1" parent="EmII1FdQIr8QJVhsCMgZ-12">
          <mxGeometry y="160" width="130" height="33" as="geometry" />
        </mxCell>
        <mxCell id="EmII1FdQIr8QJVhsCMgZ-20" value="&lt;span style=&quot;color: rgb(0, 0, 0); font-family: Helvetica; font-size: 16px; font-style: normal; font-variant-ligatures: normal; font-variant-caps: normal; letter-spacing: normal; orphans: 2; text-align: center; text-indent: 0px; text-transform: none; widows: 2; word-spacing: 0px; -webkit-text-stroke-width: 0px; text-decoration-thickness: initial; text-decoration-style: initial; text-decoration-color: initial; float: none; display: inline !important;&quot;&gt;&lt;b style=&quot;&quot;&gt;Stack data 2&lt;/b&gt;&lt;/span&gt;" style="shape=partialRectangle;html=1;whiteSpace=wrap;connectable=0;strokeColor=inherit;overflow=hidden;fillColor=#6EBBFF;top=0;left=0;bottom=0;right=0;pointerEvents=1;fontSize=16;fillStyle=hatch;sketch=1;curveFitting=1;jiggle=2;" vertex="1" parent="EmII1FdQIr8QJVhsCMgZ-19">
          <mxGeometry width="130" height="33" as="geometry">
            <mxRectangle width="130" height="33" as="alternateBounds" />
          </mxGeometry>
        </mxCell>
        <mxCell id="EmII1FdQIr8QJVhsCMgZ-21" value="" style="shape=tableRow;horizontal=0;startSize=0;swimlaneHead=0;swimlaneBody=0;strokeColor=inherit;top=0;left=0;bottom=0;right=0;collapsible=0;dropTarget=0;fillColor=none;points=[[0,0.5],[1,0.5]];portConstraint=eastwest;fontSize=16;" vertex="1" parent="EmII1FdQIr8QJVhsCMgZ-12">
          <mxGeometry y="193" width="130" height="31" as="geometry" />
        </mxCell>
        <mxCell id="EmII1FdQIr8QJVhsCMgZ-22" value="&lt;b&gt;Stack data 1&lt;/b&gt;" style="shape=partialRectangle;html=1;whiteSpace=wrap;connectable=0;strokeColor=inherit;overflow=hidden;fillColor=#6EBBFF;top=0;left=0;bottom=0;right=0;pointerEvents=1;fontSize=16;fillStyle=hatch;sketch=1;curveFitting=1;jiggle=2;" vertex="1" parent="EmII1FdQIr8QJVhsCMgZ-21">
          <mxGeometry width="130" height="31" as="geometry">
            <mxRectangle width="130" height="31" as="alternateBounds" />
          </mxGeometry>
        </mxCell>
        <mxCell id="EmII1FdQIr8QJVhsCMgZ-40" value="" style="shape=curlyBracket;whiteSpace=wrap;html=1;rounded=1;flipH=1;labelPosition=right;verticalLabelPosition=middle;align=left;verticalAlign=middle;fontSize=16;" vertex="1" parent="1">
          <mxGeometry x="510" y="1290" width="20" height="89" as="geometry" />
        </mxCell>
        <mxCell id="EmII1FdQIr8QJVhsCMgZ-41" value="Stack area" style="text;html=1;align=center;verticalAlign=middle;resizable=0;points=[];autosize=1;strokeColor=none;fillColor=none;fontSize=16;fontStyle=1" vertex="1" parent="1">
          <mxGeometry x="530" y="1320" width="100" height="30" as="geometry" />
        </mxCell>
        <mxCell id="EmII1FdQIr8QJVhsCMgZ-43" value="" style="endArrow=none;dashed=1;html=1;dashPattern=1 3;strokeWidth=4;rounded=0;fontSize=15;curved=1;startSize=8;endSize=8;spacing=5;" edge="1" parent="1">
          <mxGeometry width="50" height="50" relative="1" as="geometry">
            <mxPoint x="434.58" y="1140" as="sourcePoint" />
            <mxPoint x="435" y="1100" as="targetPoint" />
          </mxGeometry>
        </mxCell>
        <mxCell id="EmII1FdQIr8QJVhsCMgZ-44" value="&lt;b&gt;&lt;font style=&quot;font-size: 20px;&quot;&gt;Memory&lt;/font&gt;&lt;/b&gt;" style="text;html=1;align=center;verticalAlign=middle;resizable=0;points=[];autosize=1;strokeColor=none;fillColor=none;fontSize=16;" vertex="1" parent="1">
          <mxGeometry x="385" y="1060" width="100" height="40" as="geometry" />
        </mxCell>
        <mxCell id="EmII1FdQIr8QJVhsCMgZ-60" value="" style="group" vertex="1" connectable="0" parent="1">
          <mxGeometry x="100" y="1220" width="120" height="100" as="geometry" />
        </mxCell>
        <mxCell id="EmII1FdQIr8QJVhsCMgZ-9" value="&lt;b&gt;Stack Pointer&lt;br&gt;&lt;br&gt;&lt;/b&gt;" style="rounded=1;whiteSpace=wrap;html=1;fontSize=16;sketch=1;curveFitting=1;jiggle=2;fillStyle=hachure;strokeColor=#0569FF;fillColor=#05ACFF;" vertex="1" parent="EmII1FdQIr8QJVhsCMgZ-60">
          <mxGeometry y="30" width="120" height="70" as="geometry" />
        </mxCell>
        <mxCell id="EmII1FdQIr8QJVhsCMgZ-10" value="" style="rounded=0;whiteSpace=wrap;html=1;fontSize=16;" vertex="1" parent="EmII1FdQIr8QJVhsCMgZ-60">
          <mxGeometry x="19" y="70" width="82" height="20" as="geometry" />
        </mxCell>
        <mxCell id="EmII1FdQIr8QJVhsCMgZ-11" value="&lt;b&gt;CPU&lt;/b&gt;" style="text;html=1;align=center;verticalAlign=middle;resizable=0;points=[];autosize=1;strokeColor=none;fillColor=none;fontSize=16;" vertex="1" parent="EmII1FdQIr8QJVhsCMgZ-60">
          <mxGeometry x="30" width="60" height="30" as="geometry" />
        </mxCell>
      </root>
    </mxGraphModel>
  </diagram>
</mxfile>
